<?xml version="1.0" encoding="UTF-8" standalone="no"?>
<svg
   xmlns:dc="http://purl.org/dc/elements/1.1/"
   xmlns:cc="http://creativecommons.org/ns#"
   xmlns:rdf="http://www.w3.org/1999/02/22-rdf-syntax-ns#"
   xmlns:svg="http://www.w3.org/2000/svg"
   xmlns="http://www.w3.org/2000/svg"
   xmlns:sodipodi="http://sodipodi.sourceforge.net/DTD/sodipodi-0.dtd"
   xmlns:inkscape="http://www.inkscape.org/namespaces/inkscape"
   inkscape:export-ydpi="100"
   inkscape:export-xdpi="100"
   inkscape:export-filename="/tmp/strapping-banner.svg.png"
   sodipodi:docname="strapping-banner.svg"
   inkscape:version="1.0 (4035a4fb49, 2020-05-01)"
   id="svg1123"
   version="1.1"
   viewBox="0 0 355.29449 177.64724"
   height="177.64725mm"
   width="355.29449mm">
  <defs
     id="defs1117">
    <rect
       x="130.12212"
       y="73.206841"
       width="259.30405"
       height="49.616306"
       id="rect1870" />
    <rect
       x="-5.3764448"
       y="-2.9114947"
       width="462.6821"
       height="133.99625"
       id="rect1864" />
    <inkscape:path-effect
       only_selected="false"
       apply_with_weight="true"
       apply_no_weight="true"
       helper_size="0"
       steps="2"
       weight="33.333333"
       lpeversion="1"
       is_visible="true"
       id="path-effect1021"
       effect="bspline" />
    <inkscape:path-effect
       only_selected="false"
       apply_with_weight="true"
       apply_no_weight="true"
       helper_size="0"
       steps="2"
       weight="33.333333"
       lpeversion="1"
       is_visible="true"
       id="path-effect1017"
       effect="bspline" />
    <inkscape:path-effect
       effect="bspline"
       id="path-effect1013"
       is_visible="true"
       lpeversion="1"
       weight="33.333333"
       steps="2"
       helper_size="0"
       apply_no_weight="true"
       apply_with_weight="true"
       only_selected="false" />
    <inkscape:path-effect
       only_selected="false"
       apply_with_weight="true"
       apply_no_weight="true"
       helper_size="0"
       steps="2"
       weight="33.333333"
       lpeversion="1"
       is_visible="true"
       id="path-effect994"
       effect="bspline" />
    <inkscape:path-effect
       only_selected="false"
       apply_with_weight="true"
       apply_no_weight="true"
       helper_size="0"
       steps="2"
       weight="33.333333"
       lpeversion="1"
       is_visible="true"
       id="path-effect843"
       effect="bspline" />
    <inkscape:path-effect
       only_selected="false"
       apply_with_weight="true"
       apply_no_weight="true"
       helper_size="0"
       steps="2"
       weight="33.333333"
       lpeversion="1"
       is_visible="true"
       id="path-effect839"
       effect="bspline" />
    <inkscape:path-effect
       only_selected="false"
       apply_with_weight="true"
       apply_no_weight="true"
       helper_size="0"
       steps="2"
       weight="33.333333"
       lpeversion="1"
       is_visible="true"
       id="path-effect835"
       effect="bspline" />
  </defs>
  <sodipodi:namedview
     id="base"
     pagecolor="#ffffff"
     bordercolor="#666666"
     borderopacity="1.0"
     inkscape:pageopacity="0.0"
     inkscape:pageshadow="2"
     inkscape:zoom="1.0016659"
     inkscape:cx="322.70314"
     inkscape:cy="219.48694"
     inkscape:document-units="mm"
     inkscape:current-layer="layer1"
     inkscape:document-rotation="0"
     showgrid="false"
     inkscape:window-width="1366"
     inkscape:window-height="703"
     inkscape:window-x="0"
     inkscape:window-y="0"
     inkscape:window-maximized="1"
     fit-margin-top="0"
     fit-margin-left="0"
     fit-margin-right="0"
     fit-margin-bottom="0"
     inkscape:pagecheckerboard="true" />
  <metadata
     id="metadata1120">
    <rdf:RDF>
      <cc:Work
         rdf:about="">
        <dc:format>image/svg+xml</dc:format>
        <dc:type
           rdf:resource="http://purl.org/dc/dcmitype/StillImage" />
        <dc:title />
      </cc:Work>
    </rdf:RDF>
  </metadata>
  <g
     inkscape:label="Layer 1"
     inkscape:groupmode="layer"
     id="layer1"
     transform="translate(11.726441,23.055767)">
    <rect
       style="fill:#ffffff;stroke-width:0.86739;stroke-linecap:round;stop-color:#000000"
       id="rect2087"
       width="403.94922"
       height="201.80537"
       x="-34.690853"
       y="-34.390293" />
    <text
       xml:space="preserve"
       id="text1862"
       style="font-style:normal;font-weight:normal;font-size:42.3333px;line-height:1.25;font-family:sans-serif;letter-spacing:0px;word-spacing:0px;white-space:pre;shape-inside:url(#rect1864);fill:#000000;fill-opacity:1;stroke:none;"
       transform="translate(134.86307,26.96675)"><tspan
         x="-5.3769531"
         y="35.357195"><tspan
           style="font-style:normal;font-variant:normal;font-weight:normal;font-stretch:normal;font-size:42.3333px;font-family:Stem-Medium;-inkscape-font-specification:Stem-Medium">Strapping!</tspan></tspan></text>
    <text
       xml:space="preserve"
       id="text1868"
       style="font-style:normal;font-weight:normal;font-size:10.5833px;line-height:1.25;font-family:sans-serif;letter-spacing:0px;word-spacing:0px;white-space:pre;shape-inside:url(#rect1870);fill:#000000;fill-opacity:1;stroke:none;"
       transform="translate(5.2916667,11.356763)"><tspan
         x="130.12305"
         y="82.570771"><tspan>A system bootstrapper with class</tspan></tspan></text>
    <rect
       style="fill:none;stroke-width:0.77306;stroke-linecap:round;stop-color:#000000"
       id="rect2065"
       width="377.53885"
       height="137.44856"
       x="-5.3764448"
       y="-2.9114947" />
    <g
       transform="translate(-52.592761,-70.318515)"
       id="layer1-6"
       inkscape:label="Layer 1">
      <rect
         ry="19.421705"
         y="67.407021"
         x="47.981308"
         height="136.59378"
         width="121.86884"
         id="rect1023"
         style="opacity:1;fill:#e6e6e6;fill-opacity:1;stroke:#000000;stroke-width:0.765;stroke-linecap:round;stroke-miterlimit:4;stroke-dasharray:none;stroke-opacity:1" />
      <path
         transform="matrix(0.26458333,0,0,0.26458333,40.86632,47.262748)"
         d="M 401.1875 111.07031 C 396.7327 110.94834 391.87708 111.78821 386.73242 113.47461 C 373.01333 117.97168 357.41789 128.37202 335.23047 142.23242 C 313.04305 156.09282 284.61734 173.17526 270.26367 183.49609 C 255.91 193.81693 255.6286 197.37559 251.79688 211.01367 C 247.96515 224.65175 240.58351 248.37006 236.79492 312.92578 C 233.00633 377.4815 232.81113 482.87231 235.85156 540.48047 C 237.18739 565.79093 239.14859 581.87149 242.55664 592.39648 L 381.02734 592.39648 C 385.06283 585.27062 386.9448 575.74401 389.89453 557.13672 C 393.5916 533.81511 399.12004 495.59692 406.82422 452.85547 C 414.5284 410.11402 424.40884 362.85107 429.25195 314.24609 C 434.09507 265.64111 433.9001 215.69815 432.14844 181.77148 C 430.39677 147.84482 427.08822 129.93798 419.60156 120.2207 C 414.9224 114.14741 408.61217 111.2736 401.1875 111.07031 z "
         style="fill:#e6e6e6;fill-opacity:1;stroke:#000000;stroke-width:2.9178;stroke-linecap:butt;stroke-linejoin:miter;stroke-miterlimit:4;stroke-dasharray:none;stroke-dashoffset:0;stroke-opacity:1"
         id="path1019" />
      <path
         transform="matrix(0.26458333,0,0,0.26458333,40.86632,47.262748)"
         d="M 109.88281 112.94531 C 105.27561 113.04477 101.22153 113.97816 97.808594 115.92383 C 84.156847 123.7065 80.771973 147.70005 79.179688 178.41406 C 77.587402 209.12807 77.788962 246.55799 88.277344 311.61914 C 98.765725 376.68029 119.5389 469.3649 124.7168 523.57812 C 128.3876 562.0119 124.22916 581.09889 128.0293 592.39648 L 266.07031 592.39648 C 266.17278 580.0396 265.82252 559.66769 265.20898 524.24219 C 263.95415 451.78796 261.63516 316.93937 260.35156 248.88281 C 259.06796 180.82625 258.81921 179.57054 242.14844 170.05664 C 225.47767 160.54274 192.38607 142.77281 163.88086 129.67188 C 142.50195 119.84618 123.70442 112.64693 109.88281 112.94531 z "
         style="fill:#e6e6e6;stroke:#000000;stroke-width:2.9178;stroke-linecap:butt;stroke-linejoin:miter;stroke-miterlimit:4;stroke-dasharray:none;stroke-dashoffset:0;stroke-opacity:1"
         id="path1015" />
      <path
         sodipodi:nodetypes="sccccccccss"
         inkscape:original-d="m 115.61783,91.896604 c 3.57467,-3.407007 7.14902,-6.814218 10.72323,-10.221818 2.267,-1.254857 4.53366,-2.509933 6.80009,-3.765293 2.06724,3.986014 4.13413,7.971605 6.2008,11.95701 0.64674,6.101522 1.29319,12.202537 1.93938,18.303407 -1.76565,-0.56251 -3.5315,-1.12527 -5.29766,-1.68829 -5.4648,-2.38204 -10.92966,-4.76425 -16.39488,-7.146769 -1.16371,-1.278452 -2.32762,-2.557086 -3.49186,-3.836067 -0.17768,-0.959284 -0.35561,-1.918767 -0.53382,-2.878584 0.0185,-0.24094 0.0367,-0.482133 0.0547,-0.723596 2.7e-4,2.65e-4 2.8e-4,2.65e-4 2e-5,0 z"
         inkscape:path-effect="#path-effect843"
         id="path841"
         d="m 117.40504,90.192966 c 1.7872,-1.703638 5.36155,-5.110851 8.2822,-7.442101 2.92065,-2.331249 5.18731,-3.586326 7.35418,-2.220816 2.16687,1.36551 4.23376,5.3511 5.5904,10.394551 1.35663,5.04345 2.00308,11.14447 1.4435,13.91355 -0.55959,2.76909 -2.32544,2.20634 -5.94092,0.73382 -3.61548,-1.47251 -9.08034,-3.85473 -12.39484,-5.685141 -3.3145,-1.830416 -4.4784,-3.109054 -5.14946,-4.228172 -0.67106,-1.119118 -0.84899,-2.078601 -0.92888,-2.67901 -0.0799,-0.600409 -0.0617,-0.841599 -0.0525,-0.962321 0.009,-0.120722 0.009,-0.120722 1.79635,-1.82436 z"
         style="fill:#1a1a1a;fill-opacity:1;stroke:#000000;stroke-width:0.772;stroke-linecap:butt;stroke-linejoin:miter;stroke-miterlimit:4;stroke-dasharray:none;stroke-dashoffset:0;stroke-opacity:1" />
      <path
         inkscape:original-d="M 105.58892,90.069259 C 98.375858,86.650808 91.16253,83.232092 83.948941,79.813112 c -0.814253,1.144926 -1.628738,2.289543 -2.443501,3.433916 0.116911,12.607774 0.233555,25.214782 0.349938,37.821772 1.819248,-2.57282 3.841006,-5.29398 5.761111,-7.94137 7.283053,-5.73024 14.565551,-11.4605 21.847931,-17.191155 -1.2916,-1.955445 -2.5834,-3.911079 -3.8755,-5.867016 z"
         inkscape:path-effect="#path-effect835"
         id="path833"
         d="m 102.62843,89.337966 c -4.252518,-2.687272 -11.465846,-6.105988 -15.479944,-7.243065 -4.014098,-1.137076 -4.828583,0.0075 -5.177489,6.883722 -0.348906,6.876181 -0.232263,19.483187 0.751152,24.511497 0.983414,5.0283 2.973934,2.28448 7.57555,-1.90437 4.601616,-4.18885 11.884111,-9.91911 14.879581,-13.761998 2.99548,-3.842884 1.70368,-5.798514 -2.54885,-8.485786 z"
         style="fill:#1a1a1a;fill-opacity:1;stroke:#000000;stroke-width:0.772;stroke-linecap:butt;stroke-linejoin:miter;stroke-miterlimit:4;stroke-dasharray:none;stroke-dashoffset:0;stroke-opacity:1" />
      <path
         inkscape:original-d="m 112.68527,88.254101 c -3.35201,0.361553 -6.70429,0.722841 -10.05684,1.083865 -1.68666,3.360616 -3.373529,6.720832 -5.060692,10.080853 3.016522,1.595351 6.032652,3.190371 9.048582,4.785171 4.51137,-2.18964 9.02229,-4.379449 13.53304,-6.569569 -1.00622,-2.776876 -2.01267,-5.553908 -3.0194,-8.331258 -1.48133,-0.34943 -2.96286,-0.699111 -4.44469,-1.049062 z"
         inkscape:path-effect="#path-effect839"
         id="path837"
         d="m 111.75019,88.609613 c -2.41696,0.0058 -5.76924,0.367039 -8.28899,2.227923 -2.51975,1.860884 -4.206617,5.221102 -3.541753,7.698821 0.664863,2.477723 3.680993,4.072743 7.444543,3.775213 3.76355,-0.29754 8.27447,-2.487346 10.02673,-4.970658 1.75227,-2.483312 0.74582,-5.260345 -0.49811,-6.823858 -1.24393,-1.563513 -2.72547,-1.913192 -5.14242,-1.907441 z"
         style="fill:#1a1a1a;stroke:#000000;stroke-width:0.772;stroke-linecap:butt;stroke-linejoin:miter;stroke-miterlimit:4;stroke-dasharray:none;stroke-dashoffset:0;stroke-opacity:1" />
      <path
         transform="matrix(0.26458333,0,0,0.26458333,40.86632,47.262748)"
         d="M 144.10938 96.279297 C 142.66287 96.260545 141.0963 96.280278 139.39648 96.34375 C 125.79796 96.85153 103.83772 100.24589 88.589844 118.05469 C 73.341963 135.86349 64.80753 168.08566 62.125 208.00781 C 59.44247 247.92996 62.610783 295.55002 69.820312 340.14648 C 77.029842 384.74295 88.281097 426.31195 97.255859 471.28516 C 106.23062 516.25836 112.92776 564.63303 116.52344 590.33594 C 116.63091 591.10421 116.7142 591.66817 116.81641 592.39648 L 176.80664 592.39648 C 175.98836 575.95302 173.78377 553.23261 171.68164 527.85547 C 168.668 491.47453 165.87512 449.67846 160.68359 416.32812 C 155.49207 382.97779 147.90287 358.07556 140.16992 324.93945 C 132.43697 291.80335 124.55932 250.43658 123.36523 214.47266 C 122.17115 178.50873 127.66049 147.95077 135.97852 130.83398 C 144.29654 113.7172 155.44257 110.04362 161.01562 108.20703 C 166.58868 106.37044 166.5901 106.37028 166.03125 105.39062 C 165.4724 104.41097 164.35307 102.4495 161.21484 100.29688 C 158.4689 98.413324 154.23494 96.410559 144.10938 96.279297 z "
         style="fill:#800000;stroke:#000000;stroke-width:2.9178;stroke-linecap:butt;stroke-linejoin:miter;stroke-miterlimit:4;stroke-dasharray:none;stroke-dashoffset:0;stroke-opacity:1"
         id="path992" />
      <path
         transform="matrix(0.26458333,0,0,0.26458333,40.86632,47.262748)"
         d="M 384.86523 96.279297 C 374.73967 96.410561 370.50376 98.413321 367.75781 100.29688 C 364.61958 102.44951 363.50221 104.41097 362.94336 105.39062 C 362.38451 106.37028 362.38398 106.37044 367.95703 108.20703 C 373.53009 110.04362 384.67807 113.7172 392.99609 130.83398 C 401.31412 147.95077 406.8015 178.50873 405.60742 214.47266 C 404.41334 250.43658 396.53764 291.80335 388.80469 324.93945 C 381.07173 358.07556 373.48255 382.97779 368.29102 416.32812 C 363.09949 449.67846 360.30634 491.47521 357.63867 525.79297 C 355.45997 553.82051 353.36693 576.85438 353.19531 592.39648 L 412.15625 592.39648 C 412.25846 591.66815 412.34174 591.10422 412.44922 590.33594 C 416.04487 564.63326 422.74397 516.25842 431.71875 471.28516 C 440.69353 426.3119 451.94281 384.74295 459.15234 340.14648 C 466.36187 295.55002 469.53019 247.92996 466.84766 208.00781 C 464.16513 168.08567 455.63267 135.86349 440.38477 118.05469 C 425.13686 100.24588 403.17665 96.851525 389.57812 96.34375 C 387.87831 96.280278 386.31174 96.260545 384.86523 96.279297 z "
         style="fill:#800000;stroke:#000000;stroke-width:2.9178;stroke-linecap:butt;stroke-linejoin:miter;stroke-miterlimit:4;stroke-dasharray:none;stroke-dashoffset:0;stroke-opacity:1"
         id="path992-3" />
    </g>
  </g>
</svg>
