<?xml version="1.0" encoding="UTF-8" standalone="no"?>
<svg
   xmlns:dc="http://purl.org/dc/elements/1.1/"
   xmlns:cc="http://creativecommons.org/ns#"
   xmlns:rdf="http://www.w3.org/1999/02/22-rdf-syntax-ns#"
   xmlns:svg="http://www.w3.org/2000/svg"
   xmlns="http://www.w3.org/2000/svg"
   xmlns:sodipodi="http://sodipodi.sourceforge.net/DTD/sodipodi-0.dtd"
   xmlns:inkscape="http://www.inkscape.org/namespaces/inkscape"
   width="355.29449mm"
   height="177.64725mm"
   viewBox="0 0 355.29449 177.64724"
   version="1.1"
   id="svg1123"
   inkscape:version="1.0 (4035a4fb49, 2020-05-01)"
   sodipodi:docname="strapping-banner.svg"
   inkscape:export-filename="/tmp/strapping-banner.svg.png"
   inkscape:export-xdpi="100"
   inkscape:export-ydpi="100">
  <defs
     id="defs1117">
    <rect
       id="rect1870"
       height="49.616306"
       width="259.30405"
       y="73.206841"
       x="130.12212" />
    <rect
       id="rect1864"
       height="133.99625"
       width="462.6821"
       y="-2.9114947"
       x="-5.3764448" />
    <inkscape:path-effect
       effect="bspline"
       id="path-effect1021"
       is_visible="true"
       lpeversion="1"
       weight="33.333333"
       steps="2"
       helper_size="0"
       apply_no_weight="true"
       apply_with_weight="true"
       only_selected="false" />
    <inkscape:path-effect
       effect="bspline"
       id="path-effect1017"
       is_visible="true"
       lpeversion="1"
       weight="33.333333"
       steps="2"
       helper_size="0"
       apply_no_weight="true"
       apply_with_weight="true"
       only_selected="false" />
    <inkscape:path-effect
       only_selected="false"
       apply_with_weight="true"
       apply_no_weight="true"
       helper_size="0"
       steps="2"
       weight="33.333333"
       lpeversion="1"
       is_visible="true"
       id="path-effect1013"
       effect="bspline" />
    <inkscape:path-effect
       effect="bspline"
       id="path-effect994"
       is_visible="true"
       lpeversion="1"
       weight="33.333333"
       steps="2"
       helper_size="0"
       apply_no_weight="true"
       apply_with_weight="true"
       only_selected="false" />
    <inkscape:path-effect
       effect="bspline"
       id="path-effect843"
       is_visible="true"
       lpeversion="1"
       weight="33.333333"
       steps="2"
       helper_size="0"
       apply_no_weight="true"
       apply_with_weight="true"
       only_selected="false" />
    <inkscape:path-effect
       effect="bspline"
       id="path-effect839"
       is_visible="true"
       lpeversion="1"
       weight="33.333333"
       steps="2"
       helper_size="0"
       apply_no_weight="true"
       apply_with_weight="true"
       only_selected="false" />
    <inkscape:path-effect
       effect="bspline"
       id="path-effect835"
       is_visible="true"
       lpeversion="1"
       weight="33.333333"
       steps="2"
       helper_size="0"
       apply_no_weight="true"
       apply_with_weight="true"
       only_selected="false" />
  </defs>
  <sodipodi:namedview
     inkscape:pagecheckerboard="true"
     fit-margin-bottom="0"
     fit-margin-right="0"
     fit-margin-left="0"
     fit-margin-top="0"
     inkscape:window-maximized="1"
     inkscape:window-y="0"
     inkscape:window-x="0"
     inkscape:window-height="703"
     inkscape:window-width="1366"
     showgrid="false"
     inkscape:document-rotation="0"
     inkscape:current-layer="layer1"
     inkscape:document-units="mm"
     inkscape:cy="288.83883"
     inkscape:cx="388.07626"
     inkscape:zoom="0.30229005"
     inkscape:pageshadow="2"
     inkscape:pageopacity="0.0"
     borderopacity="1.0"
     bordercolor="#666666"
     pagecolor="#ffffff"
     id="base" />
  <metadata
     id="metadata1120">
    <rdf:RDF>
      <cc:Work
         rdf:about="">
        <dc:format>image/svg+xml</dc:format>
        <dc:type
           rdf:resource="http://purl.org/dc/dcmitype/StillImage" />
        <dc:title />
      </cc:Work>
    </rdf:RDF>
  </metadata>
  <g
     transform="translate(11.726441,23.055767)"
     id="layer1"
     inkscape:groupmode="layer"
     inkscape:label="Layer 1">
    <rect
       y="-34.390293"
       x="-34.690853"
       height="201.80537"
       width="403.94922"
       id="rect2087"
       style="fill:#ffffff;stroke-width:0.86739;stroke-linecap:round;stop-color:#000000" />
    <g
       style="font-style:normal;font-weight:normal;font-size:42.3333px;line-height:1.25;font-family:sans-serif;letter-spacing:0px;word-spacing:0px;white-space:pre;shape-inside:url(#rect1864);fill:#000000;fill-opacity:1;stroke:none"
       id="text1862"
       transform="translate(134.86307,26.96675)"
       aria-label="Strapping!">
      <path
         id="path614"
         style="font-style:normal;font-variant:normal;font-weight:normal;font-stretch:normal;font-size:42.3333px;font-family:Stem-Medium;-inkscape-font-specification:Stem-Medium"
         d="m 14.773698,27.313868 c 0,1.142999 -0.507999,2.031998 -1.481665,2.666998 -1.015999,0.634999 -2.370665,0.931333 -4.1486637,0.931333 -4.3179968,0 -7.7893275,-1.396999 -10.4563255,-4.233331 l -3.0479977,3.598331 c 1.2699991,1.566332 3.1326643,2.878665 5.5456625,3.894664 2.3706649,1.015999 4.8683297,1.523999 7.4929944,1.523999 3.174998,0 5.884329,-0.804333 8.085661,-2.455332 2.201331,-1.608665 3.301997,-3.72533 3.301997,-6.307662 0,-1.693332 -0.465666,-3.132664 -1.354666,-4.317997 C 17.779363,21.429539 16.678697,20.54054 15.324031,19.990207 13.969366,19.439874 12.4877,18.931874 10.921368,18.466208 9.3127025,18.000542 7.8733703,17.619542 6.5187046,17.323209 5.164039,17.026876 4.0210398,16.561209 3.1320405,15.968543 2.2007079,15.375877 1.7773748,14.571544 1.7773748,13.640212 c 0,-1.143 0.5926663,-1.989666 1.7779987,-2.582332 1.1853324,-0.592666 2.6246647,-0.888999 4.4026634,-0.888999 3.3866641,0 6.3076621,1.058332 8.8053271,3.090331 L 19.557361,9.6185479 C 16.763364,6.82455 12.953366,5.3852177 8.0850368,5.3852177 c -3.3866642,0 -6.1383288,0.8466661 -8.33966044,2.4553315 -2.20133166,1.6086655 -3.25966426,3.5983308 -3.25966426,5.9266618 0,1.481666 0.3386665,2.751665 1.0159993,3.809998 0.6773328,1.058332 1.52399884,1.862665 2.62466468,2.455331 1.05833252,0.592666 2.24366502,1.100666 3.55599732,1.523999 1.2699991,0.423333 2.5823314,0.761999 3.8946637,1.058332 1.2699991,0.296334 2.4553319,0.635 3.5559969,0.973666 1.058333,0.338667 1.947332,0.846666 2.624665,1.439333 0.677333,0.634999 1.015999,1.396999 1.015999,2.285998 z" />
      <path
         id="path616"
         style="font-style:normal;font-variant:normal;font-weight:normal;font-stretch:normal;font-size:42.3333px;font-family:Stem-Medium;-inkscape-font-specification:Stem-Medium"
         d="m 21.4623,17.831208 h 3.809997 v 9.86366 c 0,2.582331 0.592667,4.529663 1.862666,5.884329 1.227666,1.354665 2.920998,2.031998 5.079996,2.031998 1.439332,0 2.793998,-0.338666 3.97933,-1.015999 1.185333,-0.677333 2.116665,-1.523999 2.751665,-2.624665 L 36.067289,29.2612 c -0.973666,1.269999 -2.031998,1.862665 -3.132664,1.862665 -1.015999,0 -1.777999,-0.338666 -2.201332,-1.058332 -0.423333,-0.719667 -0.634999,-1.947332 -0.634999,-3.725331 v -8.508994 h 7.111995 v -4.48733 H 30.098294 V 8.8142152 H 25.272297 V 13.343878 H 21.4623 Z" />
      <path
         id="path618"
         style="font-style:normal;font-variant:normal;font-weight:normal;font-stretch:normal;font-size:42.3333px;font-family:Stem-Medium;-inkscape-font-specification:Stem-Medium"
         d="M 41.062543,35.357195 H 45.88854 V 20.455873 c 0.253999,-0.973666 0.677332,-1.735665 1.269999,-2.285998 0.592666,-0.508 1.312332,-0.804333 2.116665,-0.804333 1.015999,0 1.777998,0.338666 2.201331,0.973666 L 54.2282,14.825544 c -1.015999,-1.269999 -2.497665,-1.947332 -4.36033,-1.947332 -0.846666,0 -1.650999,0.211667 -2.412998,0.550333 -0.762,0.381 -1.312333,0.846666 -1.566332,1.396999 v -1.481666 h -4.825997 z" />
      <path
         id="path620"
         style="font-style:normal;font-variant:normal;font-weight:normal;font-stretch:normal;font-size:42.3333px;font-family:Stem-Medium;-inkscape-font-specification:Stem-Medium"
         d="m 58.800151,19.65154 c 2.031999,-1.523999 4.106331,-2.328331 6.307662,-2.328331 1.693332,0 2.920998,0.423333 3.682998,1.227666 0.719666,0.846666 1.058332,2.074331 1.058332,3.72533 -1.185332,-0.381 -2.709331,-0.592666 -4.529663,-0.592666 -3.132664,0 -5.630329,0.592666 -7.492995,1.735665 -1.862665,1.185333 -2.793997,2.920998 -2.793997,5.24933 0,2.116665 0.719666,3.809997 2.158998,5.079996 1.439332,1.269999 3.386664,1.862665 5.841996,1.862665 2.920997,0 5.206996,-0.888999 6.815661,-2.666998 v 2.412998 h 4.825996 v -13.46199 c 0,-2.878664 -0.804332,-5.079996 -2.370664,-6.688661 -1.566333,-1.566332 -3.767664,-2.370665 -6.646329,-2.370665 -1.820332,0 -3.555997,0.296333 -5.206996,0.888999 -1.650999,0.592666 -3.005664,1.354666 -4.021663,2.370665 z m 5.291663,11.768658 c -1.269999,0 -2.243665,-0.211666 -2.963331,-0.719666 -0.761999,-0.508 -1.100666,-1.185332 -1.100666,-2.074332 0,-1.947332 1.904999,-2.920998 5.799662,-2.920998 1.481666,0 2.836332,0.211667 4.021664,0.592667 v 2.116665 c -1.354666,2.031998 -3.259664,3.005664 -5.757329,3.005664 z" />
      <path
         id="path622"
         style="font-style:normal;font-variant:normal;font-weight:normal;font-stretch:normal;font-size:42.3333px;font-family:Stem-Medium;-inkscape-font-specification:Stem-Medium"
         d="m 79.035405,43.823856 h 4.825997 v -9.905993 c 0.973666,1.227666 2.878664,1.820332 5.757329,1.820332 3.259664,0 5.926662,-1.100666 7.95866,-3.301998 2.031999,-2.201331 3.047999,-5.037662 3.047999,-8.46666 0,-3.301997 -0.973667,-5.968995 -2.878665,-8.043327 -1.947332,-2.031999 -4.529664,-3.090331 -7.789328,-3.090331 -1.185332,0 -2.370665,0.211666 -3.471331,0.634999 -1.100665,0.423333 -1.989665,1.058333 -2.624664,1.862666 V 13.343878 H 79.035405 Z M 89.449398,17.323209 c 1.904998,0 3.428997,0.634999 4.529663,1.862665 1.100666,1.269999 1.650999,2.963331 1.650999,5.164663 0,2.074332 -0.635,3.72533 -1.820332,4.995329 -1.185333,1.269999 -2.793998,1.904999 -4.74133,1.904999 -2.412998,0 -4.148664,-0.888999 -5.206996,-2.709331 v -7.619995 c 0.465666,-1.015999 1.185332,-1.904998 2.158998,-2.582331 0.931333,-0.677333 2.074332,-1.015999 3.428998,-1.015999 z" />
      <path
         id="path624"
         style="font-style:normal;font-variant:normal;font-weight:normal;font-stretch:normal;font-size:42.3333px;font-family:Stem-Medium;-inkscape-font-specification:Stem-Medium"
         d="m 104.09668,43.823856 h 4.82599 v -9.905993 c 0.97367,1.227666 2.87867,1.820332 5.75733,1.820332 3.25967,0 5.92666,-1.100666 7.95866,-3.301998 2.032,-2.201331 3.048,-5.037662 3.048,-8.46666 0,-3.301997 -0.97367,-5.968995 -2.87866,-8.043327 -1.94734,-2.031999 -4.52967,-3.090331 -7.78933,-3.090331 -1.18533,0 -2.37067,0.211666 -3.47133,0.634999 -1.10067,0.423333 -1.98967,1.058333 -2.62467,1.862666 v -1.989666 h -4.82599 z m 10.41399,-26.500647 c 1.905,0 3.429,0.634999 4.52966,1.862665 1.10067,1.269999 1.651,2.963331 1.651,5.164663 0,2.074332 -0.635,3.72533 -1.82033,4.995329 -1.18533,1.269999 -2.794,1.904999 -4.74133,1.904999 -2.413,0 -4.14866,-0.888999 -5.207,-2.709331 v -7.619995 c 0.46567,-1.015999 1.18534,-1.904998 2.159,-2.582331 0.93133,-0.677333 2.07433,-1.015999 3.429,-1.015999 z" />
      <path
         id="path626"
         style="font-style:normal;font-variant:normal;font-weight:normal;font-stretch:normal;font-size:42.3333px;font-family:Stem-Medium;-inkscape-font-specification:Stem-Medium"
         d="m 129.58129,35.357195 h 4.826 V 13.343878 h -4.826 z M 129.15796,7.0362165 c 0,0.7619994 0.254,1.3969989 0.762,1.9049986 0.508,0.5079996 1.22766,0.7196661 2.07433,0.7196661 0.762,0 1.43933,-0.2116665 1.98966,-0.7196661 0.508,-0.5079997 0.80434,-1.1429992 0.80434,-1.9049986 0,-0.6773328 -0.29634,-1.2699991 -0.80434,-1.7779987 -0.55033,-0.5079996 -1.22766,-0.7619994 -1.98966,-0.7619994 -0.80434,0 -1.48167,0.2539998 -2.032,0.7196661 -0.55033,0.5079996 -0.80433,1.1006659 -0.80433,1.820332 z" />
      <path
         id="path628"
         style="font-style:normal;font-variant:normal;font-weight:normal;font-stretch:normal;font-size:42.3333px;font-family:Stem-Medium;-inkscape-font-specification:Stem-Medium"
         d="m 139.27554,35.357195 h 4.826 V 21.090873 c 0.46566,-1.143 1.18533,-2.031999 2.159,-2.709332 0.93133,-0.677333 2.03199,-1.015999 3.21733,-1.015999 1.86266,0 3.21733,0.465666 4.10633,1.396999 0.84666,0.931333 1.31233,2.455332 1.31233,4.529663 v 12.064991 h 4.826 v -12.44599 c 0,-6.688662 -2.96334,-10.032993 -8.84766,-10.032993 -2.87867,0 -5.12233,0.846666 -6.77333,2.455332 v -1.989666 h -4.826 z" />
      <path
         id="path630"
         style="font-style:normal;font-variant:normal;font-weight:normal;font-stretch:normal;font-size:42.3333px;font-family:Stem-Medium;-inkscape-font-specification:Stem-Medium"
         d="m 184.52978,13.343878 h -4.826 v 1.439333 c -1.27,-1.185333 -3.21733,-1.820332 -5.79966,-1.820332 -3.048,0 -5.588,1.058332 -7.70466,3.090331 -2.11667,2.074331 -3.13267,4.825996 -3.13267,8.254994 0,3.59833 0.97367,6.392328 2.96333,8.424327 1.94734,2.031998 4.572,3.005664 7.83166,3.005664 2.921,0 4.86833,-0.719666 5.842,-2.243665 v 0.973666 c 0,3.513664 -1.905,5.249329 -5.715,5.249329 -1.35466,0 -2.45533,-0.254 -3.38666,-0.846666 -0.93133,-0.592666 -1.60867,-1.312332 -2.032,-2.158998 l -4.191,1.820332 c 0.635,1.777999 1.82034,3.174997 3.59834,4.190997 1.77799,1.015999 3.89466,1.481665 6.39232,1.481665 3.13267,0 5.63033,-0.846666 7.45066,-2.624664 1.778,-1.777999 2.70934,-4.444997 2.70934,-8.000994 z m -9.86366,17.906987 c -2.07433,0 -3.683,-0.592666 -4.86833,-1.777999 -1.18534,-1.185332 -1.73567,-2.878664 -1.73567,-5.079996 0,-2.201332 0.59267,-3.894664 1.86267,-5.122329 1.27,-1.185333 2.83633,-1.820332 4.69899,-1.820332 2.37067,0 4.064,0.804332 5.08,2.328331 v 8.127994 c -0.33867,0.931333 -0.97367,1.735666 -1.86267,2.370665 -0.93133,0.677333 -1.98966,0.973666 -3.17499,0.973666 z" />
      <path
         id="path632"
         style="font-style:normal;font-variant:normal;font-weight:normal;font-stretch:normal;font-size:42.3333px;font-family:Stem-Medium;-inkscape-font-specification:Stem-Medium"
         d="m 190.83739,26.255535 h 4.99533 V 5.7238841 h -4.99533 z m -0.97367,6.011329 c 0,0.846666 0.29634,1.608666 0.93134,2.243665 0.63499,0.635 1.48166,0.931333 2.49766,0.931333 0.93133,0 1.73567,-0.296333 2.413,-0.931333 0.635,-0.634999 0.97366,-1.396999 0.97366,-2.243665 0,-0.761999 -0.33866,-1.439332 -1.01599,-2.116665 -0.67734,-0.634999 -1.43934,-0.973666 -2.37067,-0.973666 -1.016,0 -1.82033,0.338667 -2.45533,0.973666 -0.67733,0.635 -0.97367,1.354666 -0.97367,2.116665 z" />
    </g>
    <g
       style="font-style:normal;font-weight:normal;font-size:10.5833px;line-height:1.25;font-family:sans-serif;letter-spacing:0px;word-spacing:0px;white-space:pre;shape-inside:url(#rect1870);fill:#000000;fill-opacity:1;stroke:none"
       id="text1868"
       transform="translate(5.2916667,11.356763)"
       aria-label="A system bootstrapper with class">
      <path
         id="path635"
         d="m 133.74039,75.883862 -1.41593,3.839547 h 2.83702 z m -0.58911,-1.028358 h 1.18338 l 2.94038,7.715267 h -1.0852 l -0.7028,-1.979201 h -3.47781 l -0.7028,1.979201 h -1.1007 z" />
      <path
         id="path637"
         d="m 145.41405,76.953561 v 0.899167 q -0.40307,-0.206705 -0.83715,-0.310058 -0.43408,-0.103352 -0.89917,-0.103352 -0.70796,0 -1.06453,0.21704 -0.3514,0.21704 -0.3514,0.651121 0,0.330728 0.25322,0.52193 0.25321,0.186035 1.01802,0.356566 l 0.32556,0.07235 q 1.01285,0.217041 1.4366,0.614948 0.42891,0.392739 0.42891,1.100704 0,0.80615 -0.64078,1.276404 -0.63562,0.470254 -1.75183,0.470254 -0.46509,0 -0.97151,-0.09302 -0.50126,-0.08785 -1.05937,-0.268717 v -0.981849 q 0.5271,0.273884 1.0387,0.41341 0.51159,0.134359 1.01285,0.134359 0.67179,0 1.03353,-0.227376 0.36173,-0.232543 0.36173,-0.651121 0,-0.387572 -0.26355,-0.594277 -0.25838,-0.206705 -1.14204,-0.397907 l -0.33073,-0.07751 q -0.88367,-0.186034 -1.27641,-0.568439 -0.39274,-0.387572 -0.39274,-1.059363 0,-0.816485 0.57878,-1.260901 0.57877,-0.444416 1.6433,-0.444416 0.5271,0 0.99219,0.07751 0.46509,0.07751 0.85782,0.232544 z" />
      <path
         id="path639"
         d="m 149.64634,83.108204 q -0.40307,1.033526 -0.78548,1.348751 -0.3824,0.315225 -1.02319,0.315225 h -0.75964 v -0.795815 h 0.5581 q 0.39274,0 0.60978,-0.186034 0.21704,-0.186035 0.48059,-0.878497 l 0.17054,-0.43408 -2.34094,-5.694725 h 1.00769 l 1.80867,4.526841 1.80867,-4.526841 h 1.00768 z" />
      <path
         id="path641"
         d="m 157.19108,76.953561 v 0.899167 q -0.40308,-0.206705 -0.83716,-0.310058 -0.43408,-0.103352 -0.89917,-0.103352 -0.70796,0 -1.06453,0.21704 -0.3514,0.21704 -0.3514,0.651121 0,0.330728 0.25322,0.52193 0.25321,0.186035 1.01802,0.356566 l 0.32556,0.07235 q 1.01285,0.217041 1.4366,0.614948 0.42891,0.392739 0.42891,1.100704 0,0.80615 -0.64078,1.276404 -0.63562,0.470254 -1.75183,0.470254 -0.46508,0 -0.97151,-0.09302 -0.50126,-0.08785 -1.05937,-0.268717 v -0.981849 q 0.5271,0.273884 1.0387,0.41341 0.51159,0.134359 1.01285,0.134359 0.67179,0 1.03353,-0.227376 0.36173,-0.232543 0.36173,-0.651121 0,-0.387572 -0.26355,-0.594277 -0.25838,-0.206705 -1.14204,-0.397907 l -0.33073,-0.07751 q -0.88367,-0.186034 -1.2764,-0.568439 -0.39274,-0.387572 -0.39274,-1.059363 0,-0.816485 0.57877,-1.260901 0.57877,-0.444416 1.6433,-0.444416 0.5271,0 0.99219,0.07751 0.46509,0.07751 0.85783,0.232544 z" />
      <path
         id="path643"
         d="m 159.95576,75.139724 v 1.643305 h 1.95853 V 77.522 h -1.95853 v 3.141917 q 0,0.707965 0.1912,0.909502 0.19637,0.201537 0.79065,0.201537 h 0.97668 v 0.795815 h -0.97668 q -1.10071,0 -1.51929,-0.408243 -0.41857,-0.41341 -0.41857,-1.498611 V 77.522 h -0.69763 v -0.738971 h 0.69763 v -1.643305 z" />
      <path
         id="path645"
         d="m 168.11544,79.439189 v 0.465087 h -4.37181 q 0.062,0.981849 0.58911,1.498611 0.53226,0.511595 1.47794,0.511595 0.54776,0 1.05936,-0.134358 0.51676,-0.134358 1.02319,-0.403075 v 0.899167 q -0.5116,0.217041 -1.04903,0.330728 -0.53743,0.113688 -1.09037,0.113688 -1.38492,0 -2.19624,-0.80615 -0.80615,-0.806149 -0.80615,-2.180738 0,-1.421097 0.76481,-2.253085 0.76998,-0.837156 2.07222,-0.837156 1.16788,0 1.84484,0.754474 0.68213,0.749305 0.68213,2.041212 z m -0.95085,-0.279052 q -0.0103,-0.780311 -0.43924,-1.245398 -0.42375,-0.465086 -1.12655,-0.465086 -0.79581,0 -1.2764,0.449583 -0.47542,0.449584 -0.54777,1.266069 z" />
      <path
         id="path647"
         d="m 174.18223,77.894069 q 0.35657,-0.640786 0.85266,-0.945676 0.49609,-0.30489 1.16789,-0.30489 0.90433,0 1.39525,0.635618 0.49093,0.630451 0.49093,1.798334 v 3.493316 h -0.95601 v -3.46231 q 0,-0.831988 -0.29456,-1.235063 -0.29455,-0.403075 -0.89916,-0.403075 -0.73897,0 -1.16789,0.490925 -0.42891,0.490924 -0.42891,1.338415 v 3.271108 h -0.95601 v -3.46231 q 0,-0.837156 -0.29456,-1.235063 -0.29455,-0.403075 -0.9095,-0.403075 -0.72863,0 -1.15755,0.496093 -0.42891,0.490924 -0.42891,1.333247 v 3.271108 h -0.95601 v -5.787742 h 0.95601 v 0.899167 q 0.32556,-0.532266 0.78031,-0.785479 0.45475,-0.253214 1.08004,-0.253214 0.63045,0 1.06969,0.320393 0.44442,0.320393 0.65629,0.930173 z" />
      <path
         id="path649"
         d="m 187.50438,79.682068 q 0,-1.049029 -0.43408,-1.643306 -0.42892,-0.599444 -1.18339,-0.599444 -0.75447,0 -1.18855,0.599444 -0.42892,0.594277 -0.42892,1.643306 0,1.049028 0.42892,1.648473 0.43408,0.594277 1.18855,0.594277 0.75447,0 1.18339,-0.594277 0.43408,-0.599445 0.43408,-1.648473 z m -3.23494,-2.020542 q 0.29972,-0.516763 0.75448,-0.764809 0.45991,-0.253214 1.09553,-0.253214 1.0542,0 1.71049,0.837156 0.66145,0.837155 0.66145,2.201409 0,1.364253 -0.66145,2.201409 -0.65629,0.837155 -1.71049,0.837155 -0.63562,0 -1.09553,-0.248046 -0.45476,-0.253214 -0.75448,-0.769976 v 0.868161 h -0.95601 v -8.040827 h 0.95601 z" />
      <path
         id="path651"
         d="m 192.31027,77.449653 q -0.76481,0 -1.20923,0.599445 -0.44441,0.594277 -0.44441,1.63297 0,1.038693 0.43925,1.638137 0.44441,0.594277 1.21439,0.594277 0.75964,0 1.20406,-0.599444 0.44441,-0.599445 0.44441,-1.63297 0,-1.028358 -0.44441,-1.627803 -0.44442,-0.604612 -1.20406,-0.604612 z m 0,-0.80615 q 1.24023,0 1.94819,0.80615 0.70797,0.80615 0.70797,2.232415 0,1.421097 -0.70797,2.232414 -0.70796,0.80615 -1.94819,0.80615 -1.2454,0 -1.95336,-0.80615 -0.7028,-0.811317 -0.7028,-2.232414 0,-1.426265 0.7028,-2.232415 0.70796,-0.80615 1.95336,-0.80615 z" />
      <path
         id="path653"
         d="m 198.78531,77.449653 q -0.76481,0 -1.20923,0.599445 -0.44441,0.594277 -0.44441,1.63297 0,1.038693 0.43924,1.638137 0.44442,0.594277 1.2144,0.594277 0.75964,0 1.20405,-0.599444 0.44442,-0.599445 0.44442,-1.63297 0,-1.028358 -0.44442,-1.627803 -0.44441,-0.604612 -1.20405,-0.604612 z m 0,-0.80615 q 1.24023,0 1.94819,0.80615 0.70797,0.80615 0.70797,2.232415 0,1.421097 -0.70797,2.232414 -0.70796,0.80615 -1.94819,0.80615 -1.2454,0 -1.95337,-0.80615 -0.70279,-0.811317 -0.70279,-2.232414 0,-1.426265 0.70279,-2.232415 0.70797,-0.80615 1.95337,-0.80615 z" />
      <path
         id="path655"
         d="m 203.9581,75.139724 v 1.643305 h 1.95853 V 77.522 h -1.95853 v 3.141917 q 0,0.707965 0.1912,0.909502 0.19637,0.201537 0.79065,0.201537 h 0.97668 v 0.795815 h -0.97668 q -1.1007,0 -1.51928,-0.408243 -0.41858,-0.41341 -0.41858,-1.498611 V 77.522 h -0.69763 v -0.738971 h 0.69763 v -1.643305 z" />
      <path
         id="path657"
         d="m 210.85688,76.953561 v 0.899167 q -0.40307,-0.206705 -0.83715,-0.310058 -0.43408,-0.103352 -0.89917,-0.103352 -0.70796,0 -1.06453,0.21704 -0.3514,0.21704 -0.3514,0.651121 0,0.330728 0.25321,0.52193 0.25322,0.186035 1.01803,0.356566 l 0.32556,0.07235 q 1.01285,0.217041 1.4366,0.614948 0.42891,0.392739 0.42891,1.100704 0,0.80615 -0.64079,1.276404 -0.63561,0.470254 -1.75182,0.470254 -0.46509,0 -0.97151,-0.09302 -0.50126,-0.08785 -1.05937,-0.268717 v -0.981849 q 0.5271,0.273884 1.0387,0.41341 0.51159,0.134359 1.01285,0.134359 0.67179,0 1.03353,-0.227376 0.36173,-0.232543 0.36173,-0.651121 0,-0.387572 -0.26355,-0.594277 -0.25838,-0.206705 -1.14205,-0.397907 l -0.33072,-0.07751 q -0.88367,-0.186034 -1.27641,-0.568439 -0.39274,-0.387572 -0.39274,-1.059363 0,-0.816485 0.57878,-1.260901 0.57877,-0.444416 1.6433,-0.444416 0.5271,0 0.99219,0.07751 0.46508,0.07751 0.85782,0.232544 z" />
      <path
         id="path659"
         d="m 213.62156,75.139724 v 1.643305 h 1.95853 V 77.522 h -1.95853 v 3.141917 q 0,0.707965 0.1912,0.909502 0.19637,0.201537 0.79065,0.201537 h 0.97668 v 0.795815 h -0.97668 q -1.1007,0 -1.51928,-0.408243 -0.41858,-0.41341 -0.41858,-1.498611 V 77.522 h -0.69763 v -0.738971 h 0.69763 v -1.643305 z" />
      <path
         id="path661"
         d="m 220.18445,77.671861 q -0.1602,-0.09302 -0.3514,-0.134359 -0.18604,-0.04651 -0.41341,-0.04651 -0.80615,0 -1.24023,0.527098 -0.42892,0.52193 -0.42892,1.503779 v 3.0489 h -0.95601 v -5.787742 h 0.95601 v 0.899167 q 0.29973,-0.527098 0.78032,-0.780312 0.48059,-0.258381 1.16788,-0.258381 0.0982,0 0.21704,0.0155 0.11886,0.01033 0.26355,0.03617 z" />
      <path
         id="path663"
         d="m 223.81212,79.661397 q -1.15238,0 -1.59679,0.263549 -0.44442,0.263549 -0.44442,0.899167 0,0.506428 0.33073,0.80615 0.33589,0.294555 0.9095,0.294555 0.79065,0 1.26607,-0.558104 0.48059,-0.563271 0.48059,-1.493444 v -0.211873 z m 1.89652,-0.39274 v 3.302114 h -0.95084 v -0.878497 q -0.32556,0.527098 -0.81132,0.780312 -0.48576,0.248046 -1.18855,0.248046 -0.88884,0 -1.41593,-0.496092 -0.52193,-0.50126 -0.52193,-1.338415 0,-0.976682 0.65112,-1.472774 0.65629,-0.496092 1.95336,-0.496092 h 1.33325 v -0.09302 q 0,-0.656289 -0.43408,-1.012855 -0.42892,-0.361734 -1.20923,-0.361734 -0.49609,0 -0.96634,0.118855 -0.47026,0.118856 -0.90434,0.356566 v -0.878496 q 0.52193,-0.201537 1.01286,-0.299722 0.49092,-0.103353 0.95601,-0.103353 1.25573,0 1.87585,0.651121 0.62011,0.651121 0.62011,1.974033 z" />
      <path
         id="path665"
         d="m 228.587,81.70261 v 3.06957 h -0.95601 v -7.989151 h 0.95601 v 0.878497 q 0.29973,-0.516763 0.75448,-0.764809 0.45992,-0.253214 1.09553,-0.253214 1.0542,0 1.71049,0.837156 0.66146,0.837155 0.66146,2.201409 0,1.364253 -0.66146,2.201409 -0.65629,0.837155 -1.71049,0.837155 -0.63561,0 -1.09553,-0.248046 -0.45475,-0.253214 -0.75448,-0.769976 z m 3.23494,-2.020542 q 0,-1.049029 -0.43408,-1.643306 -0.42891,-0.599444 -1.18339,-0.599444 -0.75447,0 -1.18855,0.599444 -0.42892,0.594277 -0.42892,1.643306 0,1.049028 0.42892,1.648473 0.43408,0.594277 1.18855,0.594277 0.75448,0 1.18339,-0.594277 0.43408,-0.599445 0.43408,-1.648473 z" />
      <path
         id="path667"
         d="m 235.30492,81.70261 v 3.06957 h -0.95601 v -7.989151 h 0.95601 v 0.878497 q 0.29973,-0.516763 0.75448,-0.764809 0.45992,-0.253214 1.09553,-0.253214 1.0542,0 1.71049,0.837156 0.66145,0.837155 0.66145,2.201409 0,1.364253 -0.66145,2.201409 -0.65629,0.837155 -1.71049,0.837155 -0.63561,0 -1.09553,-0.248046 -0.45475,-0.253214 -0.75448,-0.769976 z m 3.23494,-2.020542 q 0,-1.049029 -0.43408,-1.643306 -0.42892,-0.599444 -1.18339,-0.599444 -0.75447,0 -1.18855,0.599444 -0.42892,0.594277 -0.42892,1.643306 0,1.049028 0.42892,1.648473 0.43408,0.594277 1.18855,0.594277 0.75447,0 1.18339,-0.594277 0.43408,-0.599445 0.43408,-1.648473 z" />
      <path
         id="path669"
         d="m 246.05358,79.439189 v 0.465087 h -4.37181 q 0.062,0.981849 0.58911,1.498611 0.53227,0.511595 1.47794,0.511595 0.54777,0 1.05936,-0.134358 0.51677,-0.134358 1.02319,-0.403075 v 0.899167 q -0.51159,0.217041 -1.04902,0.330728 -0.53744,0.113688 -1.09037,0.113688 -1.38493,0 -2.19624,-0.80615 -0.80615,-0.806149 -0.80615,-2.180738 0,-1.421097 0.7648,-2.253085 0.76998,-0.837156 2.07222,-0.837156 1.16789,0 1.84485,0.754474 0.68212,0.749305 0.68212,2.041212 z m -0.95084,-0.279052 q -0.0103,-0.780311 -0.43925,-1.245398 -0.42374,-0.465086 -1.12654,-0.465086 -0.79582,0 -1.27641,0.449583 -0.47542,0.449584 -0.54776,1.266069 z" />
      <path
         id="path671"
         d="m 250.968,77.671861 q -0.1602,-0.09302 -0.3514,-0.134359 -0.18603,-0.04651 -0.41341,-0.04651 -0.80615,0 -1.24023,0.527098 -0.42891,0.52193 -0.42891,1.503779 v 3.0489 h -0.95601 v -5.787742 h 0.95601 v 0.899167 q 0.29972,-0.527098 0.78031,-0.780312 0.48059,-0.258381 1.16788,-0.258381 0.0982,0 0.21704,0.0155 0.11886,0.01033 0.26355,0.03617 z" />
      <path
         id="path673"
         d="m 254.77654,76.783029 h 0.95084 l 1.18856,4.516506 1.18338,-4.516506 h 1.12138 l 1.18855,4.516506 1.18339,-4.516506 h 0.95084 l -1.51411,5.787742 h -1.12138 l -1.2454,-4.743881 -1.25056,4.743881 h -1.12138 z" />
      <path
         id="path675"
         d="m 263.98525,76.783029 h 0.95085 v 5.787742 h -0.95085 z m 0,-2.253085 h 0.95085 v 1.204057 h -0.95085 z" />
      <path
         id="path677"
         d="m 267.86614,75.139724 v 1.643305 h 1.95853 V 77.522 h -1.95853 v 3.141917 q 0,0.707965 0.19121,0.909502 0.19637,0.201537 0.79064,0.201537 h 0.97668 v 0.795815 h -0.97668 q -1.1007,0 -1.51928,-0.408243 -0.41858,-0.41341 -0.41858,-1.498611 V 77.522 h -0.69763 v -0.738971 h 0.69763 v -1.643305 z" />
      <path
         id="path679"
         d="m 275.88629,79.077455 v 3.493316 h -0.95084 v -3.46231 q 0,-0.821653 -0.32039,-1.229895 -0.3204,-0.408243 -0.96118,-0.408243 -0.76998,0 -1.21439,0.490925 -0.44442,0.490924 -0.44442,1.338415 v 3.271108 h -0.95601 v -8.040827 h 0.95601 v 3.152252 q 0.34106,-0.52193 0.80098,-0.780312 0.46509,-0.258381 1.0697,-0.258381 0.99735,0 1.50895,0.620115 0.51159,0.614948 0.51159,1.813837 z" />
      <path
         id="path681"
         d="m 285.31204,77.005237 v 0.888832 q -0.40307,-0.222208 -0.81132,-0.330728 -0.40307,-0.113688 -0.81648,-0.113688 -0.92501,0 -1.4366,0.589109 -0.5116,0.583942 -0.5116,1.643306 0,1.059363 0.5116,1.648473 0.51159,0.583941 1.4366,0.583941 0.41341,0 0.81648,-0.10852 0.40825,-0.113688 0.81132,-0.335896 v 0.878497 q -0.39791,0.186035 -0.82682,0.279052 -0.42374,0.09302 -0.90433,0.09302 -1.30741,0 -2.07739,-0.821653 -0.76998,-0.821652 -0.76998,-2.216911 0,-1.41593 0.77515,-2.227248 0.78031,-0.811317 2.13423,-0.811317 0.43925,0 0.85782,0.09302 0.41858,0.08785 0.81132,0.268717 z" />
      <path
         id="path683"
         d="m 286.96569,74.529944 h 0.95084 v 8.040827 h -0.95084 z" />
      <path
         id="path685"
         d="m 292.5364,79.661397 q -1.15238,0 -1.5968,0.263549 -0.44442,0.263549 -0.44442,0.899167 0,0.506428 0.33073,0.80615 0.3359,0.294555 0.9095,0.294555 0.79065,0 1.26607,-0.558104 0.48059,-0.563271 0.48059,-1.493444 v -0.211873 z m 1.89651,-0.39274 v 3.302114 h -0.95084 v -0.878497 q -0.32556,0.527098 -0.81132,0.780312 -0.48575,0.248046 -1.18855,0.248046 -0.88883,0 -1.41593,-0.496092 -0.52193,-0.50126 -0.52193,-1.338415 0,-0.976682 0.65112,-1.472774 0.65629,-0.496092 1.95336,-0.496092 h 1.33325 v -0.09302 q 0,-0.656289 -0.43408,-1.012855 -0.42891,-0.361734 -1.20922,-0.361734 -0.4961,0 -0.96635,0.118855 -0.47025,0.118856 -0.90433,0.356566 v -0.878496 q 0.52193,-0.201537 1.01285,-0.299722 0.49092,-0.103353 0.95601,-0.103353 1.25573,0 1.87585,0.651121 0.62011,0.651121 0.62011,1.974033 z" />
      <path
         id="path687"
         d="m 300.08113,76.953561 v 0.899167 q -0.40308,-0.206705 -0.83716,-0.310058 -0.43408,-0.103352 -0.89917,-0.103352 -0.70796,0 -1.06453,0.21704 -0.3514,0.21704 -0.3514,0.651121 0,0.330728 0.25322,0.52193 0.25321,0.186035 1.01802,0.356566 l 0.32556,0.07235 q 1.01286,0.217041 1.4366,0.614948 0.42891,0.392739 0.42891,1.100704 0,0.80615 -0.64078,1.276404 -0.63562,0.470254 -1.75183,0.470254 -0.46508,0 -0.97151,-0.09302 -0.50126,-0.08785 -1.05936,-0.268717 v -0.981849 q 0.52709,0.273884 1.03869,0.41341 0.51159,0.134359 1.01285,0.134359 0.67179,0 1.03353,-0.227376 0.36173,-0.232543 0.36173,-0.651121 0,-0.387572 -0.26355,-0.594277 -0.25838,-0.206705 -1.14204,-0.397907 l -0.33073,-0.07751 q -0.88366,-0.186034 -1.2764,-0.568439 -0.39274,-0.387572 -0.39274,-1.059363 0,-0.816485 0.57877,-1.260901 0.57877,-0.444416 1.64331,-0.444416 0.52709,0 0.99218,0.07751 0.46509,0.07751 0.85783,0.232544 z" />
      <path
         id="path689"
         d="m 305.59498,76.953561 v 0.899167 q -0.40307,-0.206705 -0.83715,-0.310058 -0.43408,-0.103352 -0.89917,-0.103352 -0.70797,0 -1.06453,0.21704 -0.3514,0.21704 -0.3514,0.651121 0,0.330728 0.25321,0.52193 0.25322,0.186035 1.01803,0.356566 l 0.32556,0.07235 q 1.01285,0.217041 1.4366,0.614948 0.42891,0.392739 0.42891,1.100704 0,0.80615 -0.64079,1.276404 -0.63561,0.470254 -1.75182,0.470254 -0.46509,0 -0.97152,-0.09302 -0.50126,-0.08785 -1.05936,-0.268717 v -0.981849 q 0.5271,0.273884 1.03869,0.41341 0.5116,0.134359 1.01286,0.134359 0.67179,0 1.03352,-0.227376 0.36174,-0.232543 0.36174,-0.651121 0,-0.387572 -0.26355,-0.594277 -0.25838,-0.206705 -1.14205,-0.397907 l -0.33073,-0.07751 q -0.88366,-0.186034 -1.2764,-0.568439 -0.39274,-0.387572 -0.39274,-1.059363 0,-0.816485 0.57878,-1.260901 0.57877,-0.444416 1.6433,-0.444416 0.5271,0 0.99219,0.07751 0.46508,0.07751 0.85782,0.232544 z" />
    </g>
    <rect
       y="-2.9114947"
       x="-5.3764448"
       height="137.44856"
       width="377.53885"
       id="rect2065"
       style="fill:none;stroke-width:0.77306;stroke-linecap:round;stop-color:#000000" />
    <g
       inkscape:label="Layer 1"
       id="layer1-6"
       transform="translate(-52.592761,-70.318515)">
      <rect
         style="opacity:1;fill:#e6e6e6;fill-opacity:1;stroke:#000000;stroke-width:0.765;stroke-linecap:round;stroke-miterlimit:4;stroke-dasharray:none;stroke-opacity:1"
         id="rect1023"
         width="121.86884"
         height="136.59378"
         x="47.981308"
         y="67.407021"
         ry="19.421705" />
      <path
         id="path1019"
         style="fill:#e6e6e6;fill-opacity:1;stroke:#000000;stroke-width:2.9178;stroke-linecap:butt;stroke-linejoin:miter;stroke-miterlimit:4;stroke-dasharray:none;stroke-dashoffset:0;stroke-opacity:1"
         d="M 401.1875 111.07031 C 396.7327 110.94834 391.87708 111.78821 386.73242 113.47461 C 373.01333 117.97168 357.41789 128.37202 335.23047 142.23242 C 313.04305 156.09282 284.61734 173.17526 270.26367 183.49609 C 255.91 193.81693 255.6286 197.37559 251.79688 211.01367 C 247.96515 224.65175 240.58351 248.37006 236.79492 312.92578 C 233.00633 377.4815 232.81113 482.87231 235.85156 540.48047 C 237.18739 565.79093 239.14859 581.87149 242.55664 592.39648 L 381.02734 592.39648 C 385.06283 585.27062 386.9448 575.74401 389.89453 557.13672 C 393.5916 533.81511 399.12004 495.59692 406.82422 452.85547 C 414.5284 410.11402 424.40884 362.85107 429.25195 314.24609 C 434.09507 265.64111 433.9001 215.69815 432.14844 181.77148 C 430.39677 147.84482 427.08822 129.93798 419.60156 120.2207 C 414.9224 114.14741 408.61217 111.2736 401.1875 111.07031 z "
         transform="matrix(0.26458333,0,0,0.26458333,40.86632,47.262748)" />
      <path
         id="path1015"
         style="fill:#e6e6e6;stroke:#000000;stroke-width:2.9178;stroke-linecap:butt;stroke-linejoin:miter;stroke-miterlimit:4;stroke-dasharray:none;stroke-dashoffset:0;stroke-opacity:1"
         d="M 109.88281 112.94531 C 105.27561 113.04477 101.22153 113.97816 97.808594 115.92383 C 84.156847 123.7065 80.771973 147.70005 79.179688 178.41406 C 77.587402 209.12807 77.788962 246.55799 88.277344 311.61914 C 98.765725 376.68029 119.5389 469.3649 124.7168 523.57812 C 128.3876 562.0119 124.22916 581.09889 128.0293 592.39648 L 266.07031 592.39648 C 266.17278 580.0396 265.82252 559.66769 265.20898 524.24219 C 263.95415 451.78796 261.63516 316.93937 260.35156 248.88281 C 259.06796 180.82625 258.81921 179.57054 242.14844 170.05664 C 225.47767 160.54274 192.38607 142.77281 163.88086 129.67188 C 142.50195 119.84618 123.70442 112.64693 109.88281 112.94531 z "
         transform="matrix(0.26458333,0,0,0.26458333,40.86632,47.262748)" />
      <path
         style="fill:#1a1a1a;fill-opacity:1;stroke:#000000;stroke-width:0.772;stroke-linecap:butt;stroke-linejoin:miter;stroke-miterlimit:4;stroke-dasharray:none;stroke-dashoffset:0;stroke-opacity:1"
         d="m 117.40504,90.192966 c 1.7872,-1.703638 5.36155,-5.110851 8.2822,-7.442101 2.92065,-2.331249 5.18731,-3.586326 7.35418,-2.220816 2.16687,1.36551 4.23376,5.3511 5.5904,10.394551 1.35663,5.04345 2.00308,11.14447 1.4435,13.91355 -0.55959,2.76909 -2.32544,2.20634 -5.94092,0.73382 -3.61548,-1.47251 -9.08034,-3.85473 -12.39484,-5.685141 -3.3145,-1.830416 -4.4784,-3.109054 -5.14946,-4.228172 -0.67106,-1.119118 -0.84899,-2.078601 -0.92888,-2.67901 -0.0799,-0.600409 -0.0617,-0.841599 -0.0525,-0.962321 0.009,-0.120722 0.009,-0.120722 1.79635,-1.82436 z"
         id="path841"
         inkscape:path-effect="#path-effect843"
         inkscape:original-d="m 115.61783,91.896604 c 3.57467,-3.407007 7.14902,-6.814218 10.72323,-10.221818 2.267,-1.254857 4.53366,-2.509933 6.80009,-3.765293 2.06724,3.986014 4.13413,7.971605 6.2008,11.95701 0.64674,6.101522 1.29319,12.202537 1.93938,18.303407 -1.76565,-0.56251 -3.5315,-1.12527 -5.29766,-1.68829 -5.4648,-2.38204 -10.92966,-4.76425 -16.39488,-7.146769 -1.16371,-1.278452 -2.32762,-2.557086 -3.49186,-3.836067 -0.17768,-0.959284 -0.35561,-1.918767 -0.53382,-2.878584 0.0185,-0.24094 0.0367,-0.482133 0.0547,-0.723596 2.7e-4,2.65e-4 2.8e-4,2.65e-4 2e-5,0 z"
         sodipodi:nodetypes="sccccccccss" />
      <path
         style="fill:#1a1a1a;fill-opacity:1;stroke:#000000;stroke-width:0.772;stroke-linecap:butt;stroke-linejoin:miter;stroke-miterlimit:4;stroke-dasharray:none;stroke-dashoffset:0;stroke-opacity:1"
         d="m 102.62843,89.337966 c -4.252518,-2.687272 -11.465846,-6.105988 -15.479944,-7.243065 -4.014098,-1.137076 -4.828583,0.0075 -5.177489,6.883722 -0.348906,6.876181 -0.232263,19.483187 0.751152,24.511497 0.983414,5.0283 2.973934,2.28448 7.57555,-1.90437 4.601616,-4.18885 11.884111,-9.91911 14.879581,-13.761998 2.99548,-3.842884 1.70368,-5.798514 -2.54885,-8.485786 z"
         id="path833"
         inkscape:path-effect="#path-effect835"
         inkscape:original-d="M 105.58892,90.069259 C 98.375858,86.650808 91.16253,83.232092 83.948941,79.813112 c -0.814253,1.144926 -1.628738,2.289543 -2.443501,3.433916 0.116911,12.607774 0.233555,25.214782 0.349938,37.821772 1.819248,-2.57282 3.841006,-5.29398 5.761111,-7.94137 7.283053,-5.73024 14.565551,-11.4605 21.847931,-17.191155 -1.2916,-1.955445 -2.5834,-3.911079 -3.8755,-5.867016 z" />
      <path
         style="fill:#1a1a1a;stroke:#000000;stroke-width:0.772;stroke-linecap:butt;stroke-linejoin:miter;stroke-miterlimit:4;stroke-dasharray:none;stroke-dashoffset:0;stroke-opacity:1"
         d="m 111.75019,88.609613 c -2.41696,0.0058 -5.76924,0.367039 -8.28899,2.227923 -2.51975,1.860884 -4.206617,5.221102 -3.541753,7.698821 0.664863,2.477723 3.680993,4.072743 7.444543,3.775213 3.76355,-0.29754 8.27447,-2.487346 10.02673,-4.970658 1.75227,-2.483312 0.74582,-5.260345 -0.49811,-6.823858 -1.24393,-1.563513 -2.72547,-1.913192 -5.14242,-1.907441 z"
         id="path837"
         inkscape:path-effect="#path-effect839"
         inkscape:original-d="m 112.68527,88.254101 c -3.35201,0.361553 -6.70429,0.722841 -10.05684,1.083865 -1.68666,3.360616 -3.373529,6.720832 -5.060692,10.080853 3.016522,1.595351 6.032652,3.190371 9.048582,4.785171 4.51137,-2.18964 9.02229,-4.379449 13.53304,-6.569569 -1.00622,-2.776876 -2.01267,-5.553908 -3.0194,-8.331258 -1.48133,-0.34943 -2.96286,-0.699111 -4.44469,-1.049062 z" />
      <path
         id="path992"
         style="fill:#800000;stroke:#000000;stroke-width:2.9178;stroke-linecap:butt;stroke-linejoin:miter;stroke-miterlimit:4;stroke-dasharray:none;stroke-dashoffset:0;stroke-opacity:1"
         d="M 144.10938 96.279297 C 142.66287 96.260545 141.0963 96.280278 139.39648 96.34375 C 125.79796 96.85153 103.83772 100.24589 88.589844 118.05469 C 73.341963 135.86349 64.80753 168.08566 62.125 208.00781 C 59.44247 247.92996 62.610783 295.55002 69.820312 340.14648 C 77.029842 384.74295 88.281097 426.31195 97.255859 471.28516 C 106.23062 516.25836 112.92776 564.63303 116.52344 590.33594 C 116.63091 591.10421 116.7142 591.66817 116.81641 592.39648 L 176.80664 592.39648 C 175.98836 575.95302 173.78377 553.23261 171.68164 527.85547 C 168.668 491.47453 165.87512 449.67846 160.68359 416.32812 C 155.49207 382.97779 147.90287 358.07556 140.16992 324.93945 C 132.43697 291.80335 124.55932 250.43658 123.36523 214.47266 C 122.17115 178.50873 127.66049 147.95077 135.97852 130.83398 C 144.29654 113.7172 155.44257 110.04362 161.01562 108.20703 C 166.58868 106.37044 166.5901 106.37028 166.03125 105.39062 C 165.4724 104.41097 164.35307 102.4495 161.21484 100.29688 C 158.4689 98.413324 154.23494 96.410559 144.10938 96.279297 z "
         transform="matrix(0.26458333,0,0,0.26458333,40.86632,47.262748)" />
      <path
         id="path992-3"
         style="fill:#800000;stroke:#000000;stroke-width:2.9178;stroke-linecap:butt;stroke-linejoin:miter;stroke-miterlimit:4;stroke-dasharray:none;stroke-dashoffset:0;stroke-opacity:1"
         d="M 384.86523 96.279297 C 374.73967 96.410561 370.50376 98.413321 367.75781 100.29688 C 364.61958 102.44951 363.50221 104.41097 362.94336 105.39062 C 362.38451 106.37028 362.38398 106.37044 367.95703 108.20703 C 373.53009 110.04362 384.67807 113.7172 392.99609 130.83398 C 401.31412 147.95077 406.8015 178.50873 405.60742 214.47266 C 404.41334 250.43658 396.53764 291.80335 388.80469 324.93945 C 381.07173 358.07556 373.48255 382.97779 368.29102 416.32812 C 363.09949 449.67846 360.30634 491.47521 357.63867 525.79297 C 355.45997 553.82051 353.36693 576.85438 353.19531 592.39648 L 412.15625 592.39648 C 412.25846 591.66815 412.34174 591.10422 412.44922 590.33594 C 416.04487 564.63326 422.74397 516.25842 431.71875 471.28516 C 440.69353 426.3119 451.94281 384.74295 459.15234 340.14648 C 466.36187 295.55002 469.53019 247.92996 466.84766 208.00781 C 464.16513 168.08567 455.63267 135.86349 440.38477 118.05469 C 425.13686 100.24588 403.17665 96.851525 389.57812 96.34375 C 387.87831 96.280278 386.31174 96.260545 384.86523 96.279297 z "
         transform="matrix(0.26458333,0,0,0.26458333,40.86632,47.262748)" />
    </g>
  </g>
</svg>
